<svg width="960" height="1280" viewBox="0 0 960 1280" fill="none" xmlns="http://www.w3.org/2000/svg">
  <rect width="960" height="1280" fill="#F7F6F3"/>
  <rect x="68" y="60" width="824" height="1160" rx="44" fill="#F9F8F4" stroke="#221E47" stroke-opacity="0.08"/>
  <ellipse cx="748" cy="250" rx="144" ry="144" fill="#EEC60A" fill-opacity="0.24"/>
  <ellipse cx="222" cy="380" rx="190" ry="218" fill="#E1B1B7" fill-opacity="0.34"/>
  <rect x="168" y="232" width="508" height="744" rx="254" fill="#221E47"/>
  <rect x="238" y="302" width="368" height="604" rx="184" fill="#D3B69D"/>
  <rect x="294" y="544" width="256" height="180" rx="80" fill="#8C5F42"/>
  <rect x="238" y="954" width="368" height="76" rx="38" fill="#EEC60A" fill-opacity="0.74"/>
  <path d="M596 694C596 794.516 524.516 866 424 866C323.484 866 252 794.516 252 694C252 593.484 323.484 522 424 522C524.516 522 596 593.484 596 694Z" fill="#F7F6F3" fill-opacity="0.62"/>
  <rect x="564" y="852" width="170" height="176" rx="42" fill="#F9F8F4" stroke="#221E47" stroke-opacity="0.08"/>
  <path d="M625 918H671" stroke="#221E47" stroke-opacity="0.32" stroke-width="6" stroke-linecap="round"/>
  <path d="M625 946H692" stroke="#221E47" stroke-opacity="0.24" stroke-width="6" stroke-linecap="round"/>
  <path d="M625 974H659" stroke="#221E47" stroke-opacity="0.24" stroke-width="6" stroke-linecap="round"/>
  <text x="138" y="110" fill="#221E47" fill-opacity="0.56" font-family="Georgia, serif" font-size="34" letter-spacing="8">HERO CROP PLACEHOLDER</text>
  <text x="138" y="1162" fill="#221E47" fill-opacity="0.64" font-family="Arial, sans-serif" font-size="30">Tall portrait ratio for the editorial hero composition.</text>
</svg>
