<svg width="1320" height="920" viewBox="0 0 1320 920" fill="none" xmlns="http://www.w3.org/2000/svg">
  <rect width="1320" height="920" fill="#F7F6F3"/>
  <rect x="58" y="56" width="1204" height="808" rx="38" fill="#F9F8F4" stroke="#221E47" stroke-opacity="0.08"/>
  <ellipse cx="1072" cy="214" rx="148" ry="148" fill="#EEC60A" fill-opacity="0.22"/>
  <rect x="202" y="276" width="238" height="360" rx="28" fill="#D3B69D"/>
  <rect x="476" y="238" width="278" height="398" rx="30" fill="#221E47"/>
  <rect x="790" y="320" width="266" height="316" rx="30" fill="#0B7B4C"/>
  <rect x="236" y="308" width="170" height="296" rx="24" fill="#F9F8F4"/>
  <rect x="516" y="276" width="198" height="322" rx="24" fill="#B06548"/>
  <rect x="830" y="356" width="186" height="248" rx="24" fill="#F9F8F4"/>
  <path d="M268 362H374" stroke="#221E47" stroke-opacity="0.28" stroke-width="6" stroke-linecap="round"/>
  <path d="M548 344H684" stroke="#F7F6F3" stroke-opacity="0.36" stroke-width="6" stroke-linecap="round"/>
  <path d="M858 434H988" stroke="#221E47" stroke-opacity="0.28" stroke-width="6" stroke-linecap="round"/>
  <rect x="202" y="694" width="854" height="78" rx="39" fill="#E1B1B7"/>
  <text x="120" y="126" fill="#221E47" fill-opacity="0.56" font-family="Georgia, serif" font-size="34" letter-spacing="8">LOGISTICS PLACEHOLDER</text>
  <text x="120" y="818" fill="#221E47" fill-opacity="0.64" font-family="Arial, sans-serif" font-size="30">Packed bins and soft goods for pickup and return proof.</text>
</svg>
