<svg width="1600" height="1100" viewBox="0 0 1600 1100" fill="none" xmlns="http://www.w3.org/2000/svg">
  <rect width="1600" height="1100" fill="#F7F6F3"/>
  <rect x="56" y="54" width="1488" height="992" rx="42" fill="#F9F8F4" stroke="#221E47" stroke-opacity="0.08"/>
  <ellipse cx="1338" cy="206" rx="178" ry="178" fill="#EEC60A" fill-opacity="0.24"/>
  <ellipse cx="252" cy="924" rx="230" ry="138" fill="#E1B1B7" fill-opacity="0.32"/>
  <rect x="216" y="334" width="1168" height="382" rx="44" fill="#E9D7C6"/>
  <rect x="274" y="388" width="1050" height="274" rx="34" fill="#221E47"/>
  <rect x="672" y="266" width="256" height="166" rx="42" fill="#8C5F42"/>
  <rect x="706" y="298" width="188" height="104" rx="26" fill="#EEC60A"/>
  <rect x="388" y="728" width="238" height="132" rx="54" fill="#0B7B4C"/>
  <rect x="986" y="728" width="238" height="132" rx="54" fill="#0B7B4C"/>
  <rect x="680" y="742" width="242" height="114" rx="44" fill="#E1B1B7"/>
  <rect x="176" y="188" width="244" height="198" rx="34" fill="#F9F8F4" stroke="#221E47" stroke-opacity="0.08"/>
  <path d="M240 258H356" stroke="#221E47" stroke-opacity="0.28" stroke-width="8" stroke-linecap="round"/>
  <path d="M240 294H330" stroke="#221E47" stroke-opacity="0.22" stroke-width="8" stroke-linecap="round"/>
  <path d="M240 330H372" stroke="#221E47" stroke-opacity="0.18" stroke-width="8" stroke-linecap="round"/>
  <text x="112" y="128" fill="#221E47" fill-opacity="0.56" font-family="Georgia, serif" font-size="40" letter-spacing="10">FULL SETUP PLACEHOLDER</text>
  <text x="112" y="990" fill="#221E47" fill-opacity="0.64" font-family="Arial, sans-serif" font-size="34">Wide proof frame for the complete rental silhouette.</text>
</svg>
