<svg width="880" height="760" viewBox="0 0 880 760" fill="none" xmlns="http://www.w3.org/2000/svg">
  <rect width="880" height="760" fill="#F7F6F3"/>
  <rect x="44" y="42" width="792" height="676" rx="34" fill="#F9F8F4" stroke="#221E47" stroke-opacity="0.08"/>
  <ellipse cx="676" cy="160" rx="110" ry="110" fill="#EEC60A" fill-opacity="0.22"/>
  <rect x="214" y="474" width="452" height="48" rx="24" fill="#221E47"/>
  <rect x="274" y="350" width="62" height="124" rx="20" fill="#F7F6F3"/>
  <rect x="406" y="302" width="72" height="172" rx="22" fill="#F7F6F3"/>
  <rect x="554" y="334" width="64" height="140" rx="20" fill="#F7F6F3"/>
  <path d="M306 340C306 322 320 310 320 288C334 306 342 320 342 340C342 360 326 370 324 370C322 370 306 360 306 340Z" fill="#EEC60A"/>
  <path d="M438 292C438 270 454 254 454 228C470 248 480 266 480 292C480 314 460 326 458 326C456 326 438 314 438 292Z" fill="#EEC60A"/>
  <path d="M586 324C586 304 600 290 600 266C614 284 622 298 622 324C622 344 606 354 604 354C602 354 586 344 586 324Z" fill="#EEC60A"/>
  <text x="92" y="112" fill="#221E47" fill-opacity="0.54" font-family="Georgia, serif" font-size="28" letter-spacing="8">CANDLE STYLING</text>
  <text x="92" y="680" fill="#221E47" fill-opacity="0.64" font-family="Arial, sans-serif" font-size="26">Candle styling extra placeholder.</text>
</svg>
