<svg width="880" height="760" viewBox="0 0 880 760" fill="none" xmlns="http://www.w3.org/2000/svg">
  <rect width="880" height="760" fill="#F7F6F3"/>
  <rect x="44" y="42" width="792" height="676" rx="34" fill="#F9F8F4" stroke="#221E47" stroke-opacity="0.08"/>
  <ellipse cx="676" cy="162" rx="110" ry="110" fill="#EEC60A" fill-opacity="0.2"/>
  <rect x="182" y="462" width="516" height="58" rx="29" fill="#221E47"/>
  <path d="M252 460C252 398 300 348 362 348C424 348 472 398 472 460H252Z" fill="#E1B1B7"/>
  <path d="M408 460C408 388 462 334 534 334C606 334 660 388 660 460H408Z" fill="#0B7B4C"/>
  <rect x="332" y="430" width="60" height="78" rx="18" fill="#B06548"/>
  <rect x="520" y="412" width="62" height="96" rx="18" fill="#E9D7C6"/>
  <circle cx="346" cy="354" r="26" fill="#EEC60A"/>
  <circle cx="382" cy="330" r="22" fill="#E1B1B7"/>
  <circle cx="550" cy="330" r="26" fill="#EEC60A"/>
  <circle cx="590" cy="364" r="24" fill="#E1B1B7"/>
  <text x="92" y="112" fill="#221E47" fill-opacity="0.54" font-family="Georgia, serif" font-size="28" letter-spacing="8">TABLE CENTERPIECES</text>
  <text x="92" y="680" fill="#221E47" fill-opacity="0.64" font-family="Arial, sans-serif" font-size="26">Tabletop centerpiece placeholder.</text>
</svg>
