<svg width="880" height="760" viewBox="0 0 880 760" fill="none" xmlns="http://www.w3.org/2000/svg">
  <rect width="880" height="760" fill="#F7F6F3"/>
  <rect x="44" y="42" width="792" height="676" rx="34" fill="#F9F8F4" stroke="#221E47" stroke-opacity="0.08"/>
  <ellipse cx="668" cy="160" rx="110" ry="110" fill="#EEC60A" fill-opacity="0.2"/>
  <path d="M238 548V248C238 203.817 273.817 168 318 168H562C606.183 168 642 203.817 642 248V548" stroke="#221E47" stroke-width="16" stroke-linecap="round"/>
  <path d="M300 228C340 304 388 352 440 382C492 352 540 304 580 228" stroke="#B06548" stroke-width="16" stroke-linecap="round"/>
  <circle cx="320" cy="252" r="28" fill="#EEC60A"/>
  <circle cx="372" cy="320" r="28" fill="#E1B1B7"/>
  <circle cx="440" cy="354" r="28" fill="#0B7B4C"/>
  <circle cx="508" cy="320" r="28" fill="#E1B1B7"/>
  <circle cx="560" cy="252" r="28" fill="#EEC60A"/>
  <rect x="314" y="516" width="252" height="38" rx="19" fill="#E9D7C6"/>
  <text x="92" y="112" fill="#221E47" fill-opacity="0.54" font-family="Georgia, serif" font-size="28" letter-spacing="8">GARLANDS</text>
  <text x="92" y="680" fill="#221E47" fill-opacity="0.64" font-family="Arial, sans-serif" font-size="26">Backdrop garland placeholder with layered floral drape.</text>
</svg>
