<svg width="880" height="760" viewBox="0 0 880 760" fill="none" xmlns="http://www.w3.org/2000/svg">
  <rect width="880" height="760" fill="#F7F6F3"/>
  <rect x="44" y="42" width="792" height="676" rx="34" fill="#F9F8F4" stroke="#221E47" stroke-opacity="0.08"/>
  <ellipse cx="690" cy="170" rx="106" ry="106" fill="#EEC60A" fill-opacity="0.22"/>
  <path d="M220 332C220 224.857 316.857 138 424 138C531.143 138 628 224.857 628 332H220Z" fill="#221E47"/>
  <path d="M220 332H628" stroke="#E9D7C6" stroke-width="10"/>
  <circle cx="276" cy="324" r="16" fill="#E1B1B7"/>
  <circle cx="350" cy="260" r="16" fill="#E1B1B7"/>
  <circle cx="424" cy="232" r="16" fill="#E1B1B7"/>
  <circle cx="500" cy="260" r="16" fill="#E1B1B7"/>
  <circle cx="572" cy="324" r="16" fill="#E1B1B7"/>
  <path d="M424 332V584" stroke="#221E47" stroke-width="12" stroke-linecap="round"/>
  <path d="M424 584C424 620 456 620 456 590" stroke="#221E47" stroke-width="12" stroke-linecap="round"/>
  <text x="92" y="112" fill="#221E47" fill-opacity="0.54" font-family="Georgia, serif" font-size="28" letter-spacing="8">MIRROR EDGE UMBRELLA</text>
  <text x="92" y="680" fill="#221E47" fill-opacity="0.64" font-family="Arial, sans-serif" font-size="26">Umbrella with mirrored edge detail placeholder.</text>
</svg>
